# Blender 5.2.1 LTS
# www.blender.org
mtllib penguin.mtl
o Cube
v 0.816432 1.895268 -1.402345
v 0.816432 2.321403 -1.144919
v 1.000000 1.895268 -1.144919
v 0.816432 -2.321403 -1.144919
v 0.816432 -1.895268 -1.402345
v 1.000000 -1.895268 -1.144919
v 1.000000 1.895268 1.144919
v 0.816432 2.321403 1.144919
v 0.816432 1.895268 1.402345
v 1.000000 -1.895268 1.144919
v 0.816432 -1.895268 1.402345
v 0.816432 -2.321403 1.144919
v -0.816432 1.895268 -1.402345
v -1.000000 1.895268 -1.144919
v -0.816432 2.321403 -1.144919
v -1.000000 -1.895268 -1.144919
v -0.816432 -1.895268 -1.402345
v -0.816432 -2.321403 -1.144919
v -1.000000 1.895268 1.144919
v -0.816432 1.895268 1.402345
v -0.816432 2.321403 1.144919
v -0.816432 -2.321403 1.144919
v -0.816432 -1.895268 1.402345
v -1.000000 -1.895268 1.144919
vn 0.7683 0.3310 -0.5479
vn 0.7683 -0.3310 -0.5479
vn 0.7683 0.3310 0.5479
vn 0.7683 -0.3310 0.5479
vn -0.7683 0.3310 -0.5479
vn -0.7683 -0.3310 -0.5479
vn -0.7683 0.3310 0.5479
vn -0.7683 -0.3310 0.5479
vn -0.9184 -0.3956 -0.0000
vn -0.0000 -0.5171 -0.8559
vn 0.8142 -0.0000 -0.5806
vn -0.8142 -0.0000 0.5806
vn 0.8142 -0.0000 0.5806
vn -0.8142 -0.0000 -0.5806
vn -0.0000 0.5171 0.8559
vn 0.9184 0.3956 -0.0000
vn -0.0000 -0.5171 0.8559
vn -0.9184 0.3956 -0.0000
vn -0.0000 0.5171 -0.8559
vn 0.9184 -0.3956 -0.0000
vn -0.0000 -0.0000 -1.0000
vn 1.0000 -0.0000 -0.0000
vn -0.0000 1.0000 -0.0000
vn -0.0000 -1.0000 -0.0000
vn -0.0000 -0.0000 1.0000
vn -1.0000 -0.0000 -0.0000
vt 0.956303 0.940731
vt 0.961929 0.942573
vt 0.956303 0.943955
vt 0.915437 0.944416
vt 0.919188 0.941652
vt 0.922001 0.944416
vt 0.956303 0.961265
vt 0.961929 0.962647
vt 0.956303 0.964489
vt 0.922001 0.960805
vt 0.919188 0.963568
vt 0.915437 0.960805
vt 0.956303 0.923881
vt 0.956303 0.920657
vt 0.960054 0.921885
vt 0.878322 0.944416
vt 0.882073 0.942573
vt 0.882073 0.944416
vt 0.956303 0.904268
vt 0.956303 0.902426
vt 0.960054 0.904268
vt 0.882073 0.960805
vt 0.882073 0.962647
vt 0.878322 0.960805
vt 0.922939 0.904268
vt 0.922939 0.902426
vt 0.922939 0.924342
vt 0.960054 0.980878
vt 0.997169 0.944416
vt 0.922939 0.980878
vt 0.922939 0.920657
vt 0.997169 0.960805
vt 0.956303 0.980878
s 0
usemtl UV
f 1/1/1 2/2/1 3/3/1
f 4/4/2 5/5/2 6/6/2
f 7/7/3 8/8/3 9/9/3
f 10/10/4 11/11/4 12/12/4
f 13/13/5 14/14/5 15/15/5
f 16/16/6 17/17/6 18/18/6
f 19/19/7 20/20/7 21/21/7
f 22/22/8 23/23/8 24/24/8
f 22/22/9 16/16/9 18/18/9
f 18/18/10 5/5/10 4/4/10
f 6/6/11 1/1/11 3/3/11
f 20/20/12 24/25/12 23/26/12
f 11/11/13 7/7/13 9/9/13
f 17/27/14 14/14/14 13/13/14
f 21/28/15 9/9/15 8/8/15
f 8/8/16 3/3/16 2/2/16
f 12/12/17 23/23/17 22/22/17
f 15/15/18 19/19/18 21/21/18
f 2/2/19 13/13/19 15/15/19
f 4/4/20 10/10/20 12/12/20
f 13/13/21 5/5/21 17/27/21
f 3/3/22 10/10/22 6/6/22
f 15/29/23 8/8/23 2/2/23
f 4/4/24 22/22/24 18/18/24
f 9/9/25 23/30/25 11/11/25
f 19/19/26 16/31/26 24/25/26
f 22/22/9 24/24/9 16/16/9
f 18/18/10 17/17/10 5/5/10
f 6/6/11 5/5/11 1/1/11
f 20/20/12 19/19/12 24/25/12
f 11/11/13 10/10/13 7/7/13
f 17/27/14 16/31/14 14/14/14
f 8/8/16 7/7/16 3/3/16
f 15/15/18 14/14/18 19/19/18
f 4/4/20 6/6/20 10/10/20
f 13/13/21 1/1/21 5/5/21
f 3/3/22 7/7/22 10/10/22
f 15/29/23 21/32/23 8/8/23
f 4/4/24 12/12/24 22/22/24
f 9/9/25 20/33/25 23/30/25
f 19/19/26 14/14/26 16/31/26
f 21/28/15 20/33/15 9/9/15
f 12/12/17 11/11/17 23/23/17
f 2/2/19 1/1/19 13/13/19
o Plane
v 1.008258 1.763285 1.000000
v 1.008258 -1.763285 1.000000
v 1.008258 1.763285 -1.000000
v 1.008258 -1.763285 -1.000000
v 1.008258 1.763285 -0.666667
v 1.008258 1.763285 -0.333333
v 1.008258 1.763285 0.000000
v 1.008258 1.763285 0.333333
v 1.008258 1.763285 0.666667
v 1.008258 1.175523 1.000000
v 1.008258 0.587761 1.000000
v 1.008258 -0.000000 1.000000
v 1.008258 -0.587762 1.000000
v 1.008258 -1.175523 1.000000
v 1.008258 -1.763285 0.666667
v 1.008258 -1.763285 0.333333
v 1.008258 -1.763285 -0.000000
v 1.008258 -1.763285 -0.333333
v 1.008258 -1.763285 -0.666667
v 1.008258 -1.175523 -1.000000
v 1.008258 -0.587761 -1.000000
v 1.008258 0.000000 -1.000000
v 1.008258 0.587762 -1.000000
v 1.008258 1.175523 -1.000000
v 1.058963 1.175523 0.666667
v 1.058963 1.175523 0.333333
v 1.058963 1.175523 -0.000000
v 1.058963 1.175523 -0.333333
v 1.058963 1.175523 -0.666667
v 1.058963 0.587762 0.666667
v 1.137837 0.587762 0.333333
v 1.137837 0.587762 -0.000000
v 1.137837 0.587762 -0.333333
v 1.058963 0.587762 -0.666667
v 1.058963 -0.000000 0.666667
v 1.137837 -0.000000 0.333333
v 1.137837 0.000000 -0.000000
v 1.137837 0.000000 -0.333333
v 1.058963 0.000000 -0.666667
v 1.058963 -0.587762 0.666667
v 1.137837 -0.587762 0.333333
v 1.137837 -0.587762 -0.000000
v 1.137837 -0.587762 -0.333333
v 1.058963 -0.587762 -0.666667
v 1.058963 -1.175523 0.666667
v 1.058963 -1.175523 0.333333
v 1.058963 -1.175523 -0.000000
v 1.058963 -1.175523 -0.333333
v 1.058963 -1.175523 -0.666667
vn 0.9851 -0.0850 -0.1498
vn 1.0000 -0.0000 -0.0000
vn 0.9886 -0.0000 -0.1504
vn 0.9963 0.0859 -0.0000
vn 0.9886 -0.0000 0.1504
vn 0.9911 0.1330 -0.0000
vn 0.9731 -0.0000 0.2303
vn 0.9731 -0.0000 -0.2303
vn 0.9649 -0.1295 0.2283
vn 0.9911 -0.1330 -0.0000
vn 0.9649 -0.1295 -0.2283
vn 0.9851 -0.0850 0.1498
vn 0.9963 -0.0859 -0.0000
vn 0.9851 0.0850 -0.1498
vn 0.9851 0.0850 0.1498
vn 0.9649 0.1295 0.2283
vn 0.9649 0.1295 -0.2283
vt 0.075883 0.952791
vt 0.071422 0.956531
vt 0.071422 0.952791
vt 0.049117 0.952791
vt 0.053578 0.956531
vt 0.049117 0.956531
vt 0.058039 0.952791
vt 0.053578 0.952791
vt 0.062500 0.952791
vt 0.058039 0.956531
vt 0.066961 0.956531
vt 0.062500 0.956531
vt 0.066961 0.952791
vt 0.053578 0.934094
vt 0.049117 0.937834
vt 0.049117 0.934094
vt 0.053578 0.937834
vt 0.049117 0.941573
vt 0.053578 0.941573
vt 0.049117 0.945312
vt 0.053578 0.945312
vt 0.049117 0.949052
vt 0.053578 0.949052
vt 0.058039 0.934094
vt 0.058039 0.937834
vt 0.058039 0.941573
vt 0.058039 0.949052
vt 0.062500 0.934094
vt 0.062500 0.937834
vt 0.062500 0.941573
vt 0.058039 0.945312
vt 0.062500 0.949052
vt 0.066961 0.934094
vt 0.066961 0.941573
vt 0.062500 0.945312
vt 0.066961 0.945312
vt 0.066961 0.949052
vt 0.071422 0.934094
vt 0.066961 0.937834
vt 0.071422 0.941573
vt 0.071422 0.945312
vt 0.071422 0.949052
vt 0.075883 0.937834
vt 0.071422 0.937834
vt 0.075883 0.941573
vt 0.075883 0.945312
vt 0.075883 0.949052
vt 0.075883 0.956531
vt 0.075883 0.934094
s 0
usemtl UV
f 43/34/27 44/35/27 73/36/27
f 29/37/28 48/38/28 27/39/28
f 58/40/29 48/38/29 53/41/29
f 63/42/29 47/43/29 58/40/29
f 63/42/29 45/44/29 46/45/29
f 73/36/29 45/44/29 68/46/29
f 34/47/28 33/48/28 25/49/28
f 49/50/30 32/51/30 33/48/30
f 50/52/30 31/53/30 32/51/30
f 51/54/30 30/55/30 31/53/30
f 52/56/30 29/37/30 30/55/30
f 35/57/31 49/50/31 34/47/31
f 54/58/28 50/52/28 49/50/28
f 55/59/32 51/54/32 50/52/32
f 51/54/32 57/60/32 52/56/32
f 52/56/28 58/40/28 53/41/28
f 36/61/31 54/58/31 35/57/31
f 59/62/33 55/59/33 54/58/33
f 60/63/28 56/64/28 55/59/28
f 56/64/28 62/65/28 57/60/28
f 57/60/34 63/42/34 58/40/34
f 37/66/31 59/62/31 36/61/31
f 59/62/33 65/67/33 60/63/33
f 65/67/28 61/68/28 60/63/28
f 66/69/28 62/65/28 61/68/28
f 67/70/34 63/42/34 62/65/34
f 38/71/31 64/72/31 37/66/31
f 64/72/35 70/73/35 65/67/35
f 70/73/36 66/69/36 65/67/36
f 71/74/36 67/70/36 66/69/36
f 72/75/37 68/46/37 67/70/37
f 38/71/38 39/76/38 69/77/38
f 39/76/39 70/73/39 69/77/39
f 40/78/39 71/74/39 70/73/39
f 41/79/39 72/75/39 71/74/39
f 42/80/39 73/36/39 72/75/39
f 43/34/28 28/81/28 44/35/28
f 29/37/40 53/41/40 48/38/40
f 58/40/29 47/43/29 48/38/29
f 63/42/29 46/45/29 47/43/29
f 63/42/29 68/46/29 45/44/29
f 73/36/29 44/35/29 45/44/29
f 34/47/41 49/50/41 33/48/41
f 49/50/30 50/52/30 32/51/30
f 50/52/30 51/54/30 31/53/30
f 51/54/30 52/56/30 30/55/30
f 52/56/30 53/41/30 29/37/30
f 35/57/31 54/58/31 49/50/31
f 54/58/42 55/59/42 50/52/42
f 55/59/32 56/64/32 51/54/32
f 51/54/32 56/64/32 57/60/32
f 52/56/43 57/60/43 58/40/43
f 36/61/31 59/62/31 54/58/31
f 59/62/33 60/63/33 55/59/33
f 60/63/28 61/68/28 56/64/28
f 56/64/28 61/68/28 62/65/28
f 57/60/34 62/65/34 63/42/34
f 37/66/31 64/72/31 59/62/31
f 59/62/33 64/72/33 65/67/33
f 65/67/28 66/69/28 61/68/28
f 66/69/28 67/70/28 62/65/28
f 67/70/34 68/46/34 63/42/34
f 38/71/31 69/77/31 64/72/31
f 64/72/28 69/77/28 70/73/28
f 70/73/36 71/74/36 66/69/36
f 71/74/36 72/75/36 67/70/36
f 72/75/28 73/36/28 68/46/28
f 38/71/28 26/82/28 39/76/28
f 39/76/39 40/78/39 70/73/39
f 40/78/39 41/79/39 71/74/39
f 41/79/39 42/80/39 72/75/39
f 42/80/39 43/34/39 73/36/39
o Cube.001
v -1.000000 -0.965236 2.035131
v -0.814083 1.618763 1.742334
v -1.000000 -0.965236 1.390254
v -0.814083 1.618763 1.390254
v 1.000000 -0.965236 2.035131
v 0.819717 1.618763 1.742334
v 1.000000 -0.965236 1.390254
v 0.823399 1.618763 1.390254
vn -0.9974 0.0718 -0.0000
vn -0.0000 -0.0000 -1.0000
vn 0.9976 0.0696 -0.0000
vn -0.0000 0.1126 0.9936
vn -0.0000 -1.0000 -0.0000
vn -0.0000 1.0000 -0.0000
vn 0.9976 0.0682 0.0104
vt 0.625000 0.000000
vt 0.375000 0.250000
vt 0.375000 0.000000
vt 0.625000 0.250000
vt 0.375000 0.500000
vt 0.625000 0.750000
vt 0.375000 0.750000
vt 0.625000 1.000000
vt 0.375000 1.000000
vt 0.125000 0.750000
vt 0.125000 0.500000
vt 0.875000 0.500000
vt 0.625000 0.500000
vt 0.875000 0.750000
s 0
usemtl Material.001
f 75/83/44 76/84/44 74/85/44
f 77/86/45 80/87/45 76/84/45
f 80/87/46 79/88/46 78/89/46
f 78/89/47 75/90/47 74/91/47
f 80/87/48 74/92/48 76/93/48
f 77/94/49 79/88/49 81/95/49
f 75/83/44 77/86/44 76/84/44
f 77/86/45 81/95/45 80/87/45
f 80/87/50 81/95/50 79/88/50
f 78/89/47 79/88/47 75/90/47
f 80/87/48 78/89/48 74/92/48
f 77/94/49 75/96/49 79/88/49
o Cube.002
v -1.000000 -0.965236 -1.401521
v -0.815097 1.618763 -1.401521
v -1.000000 -0.965236 -2.046399
v -0.815097 1.618763 -1.753602
v 1.000000 -0.965236 -1.401521
v 0.816984 1.618763 -1.401521
v 1.000000 -0.965236 -2.046399
v 0.816984 1.618763 -1.753602
vn -0.9974 0.0714 -0.0000
vn -0.0000 0.1126 -0.9936
vn 0.9975 0.0706 -0.0000
vn -0.0000 -0.0000 1.0000
vn -0.0000 -1.0000 -0.0000
vn -0.0000 1.0000 -0.0000
vt 0.375000 0.000000
vt 0.625000 0.250000
vt 0.375000 0.250000
vt 0.375000 0.500000
vt 0.625000 0.500000
vt 0.375000 0.750000
vt 0.625000 1.000000
vt 0.375000 1.000000
vt 0.125000 0.750000
vt 0.125000 0.500000
vt 0.875000 0.500000
vt 0.625000 0.750000
vt 0.625000 0.000000
vt 0.875000 0.750000
s 0
usemtl Material.001
f 82/97/51 85/98/51 84/99/51
f 85/98/52 88/100/52 84/99/52
f 89/101/53 86/102/53 88/100/53
f 86/102/54 83/103/54 82/104/54
f 88/100/55 82/105/55 84/106/55
f 85/107/56 87/108/56 89/101/56
f 82/97/51 83/109/51 85/98/51
f 85/98/52 89/101/52 88/100/52
f 89/101/53 87/108/53 86/102/53
f 86/102/54 87/108/54 83/103/54
f 88/100/55 86/102/55 82/105/55
f 85/107/56 83/110/56 87/108/56
o Cube.003
v 1.126649 3.947078 -1.270678
v 1.126649 3.613744 -1.270678
v 1.126649 3.280411 -1.270678
v 1.126649 2.947078 -1.270678
v 1.126649 2.613744 -1.270678
v 1.126649 2.280411 0.847119
v 1.126649 2.280411 0.423559
v 1.126649 2.280411 -0.000000
v 1.126649 2.280411 -0.423559
v 1.126649 2.280411 -0.847119
v 1.126649 4.280411 -0.847119
v 1.126649 4.280411 -0.423559
v 1.126649 4.280411 0.000000
v 1.126649 4.280411 0.423559
v 1.126649 4.280411 0.847119
v 1.126649 3.947078 1.270678
v 1.126649 3.613744 1.270678
v 1.126649 3.280411 1.270678
v 1.126649 2.947078 1.270678
v 1.126649 2.613744 1.270678
v 1.126649 2.613744 -0.847119
v 1.126649 2.613744 -0.423559
v 1.126649 2.613744 0.000000
v 1.126649 2.613744 0.423559
v 1.126649 2.613744 0.847119
v 1.126649 2.947078 -0.847119
v 1.126649 2.947078 -0.423559
v 1.126649 2.947078 0.000000
v 1.126649 2.947078 0.423559
v 1.126649 2.947078 0.847119
v 1.126649 3.280411 -0.847119
v 1.126649 3.280411 -0.423559
v 1.126649 3.280411 0.000000
v 1.126649 3.280411 0.423559
v 1.126649 3.280411 0.847119
v 1.126649 3.613744 -0.847119
v 1.126649 3.613744 -0.423559
v 1.126649 3.613744 0.000000
v 1.126649 3.613744 0.423559
v 1.126649 3.613744 0.847119
v 1.126649 3.947078 -0.847119
v 1.126649 3.947078 -0.423559
v 1.126649 3.947078 0.000000
v 1.126649 3.947078 0.423559
v 1.126649 3.947078 0.847119
v 2.236317 2.613744 -0.847119
v 2.521426 2.613744 -0.423559
v 2.521426 2.613744 0.000000
v 2.521426 2.613744 0.423559
v 2.236317 2.613744 0.847119
v 2.236317 2.947078 -0.847119
v 2.521426 2.947078 -0.423559
v 2.521426 2.947078 0.000000
v 2.521426 2.947078 0.423559
v 2.236317 2.947078 0.847119
v -1.126649 4.122818 1.270678
v -1.126649 4.280411 1.070428
v 1.126649 4.280411 1.070428
v 1.126649 4.122818 1.270678
v -1.126649 4.280411 -1.070428
v -1.126649 4.122818 -1.270678
v 1.126649 4.122818 -1.270678
v 1.126649 4.280411 -1.070428
v -1.126649 2.345672 -1.270678
v -1.126649 2.280411 -1.187752
v 1.126649 2.280411 -1.187752
v 1.126649 2.345672 -1.270678
v -1.126649 2.280411 1.187752
v -1.126649 2.345672 1.270678
v 1.126649 2.345672 1.270678
v 1.126649 2.280411 1.187752
v 1.124448 3.613744 -0.635339
v 1.124448 3.947078 -0.635339
v 1.124447 3.613744 0.635339
v 1.124447 3.947078 0.635339
vn 1.0000 -0.0000 -0.0000
vn -0.0000 -0.0000 -1.0000
vn -0.0000 -1.0000 -0.0000
vn 0.9999 -0.0000 -0.0104
vn 0.8296 -0.0000 -0.5584
vn 0.8296 -0.0000 0.5584
vn -0.0000 -0.0000 1.0000
vn -0.0000 0.7858 0.6184
vn -0.0000 0.7858 -0.6184
vn -0.0000 1.0000 -0.0000
vn -0.0000 -0.7858 -0.6184
vn -0.0000 -0.7858 0.6184
vn -1.0000 -0.0000 -0.0000
vn 0.9999 -0.0000 0.0104
vt 0.203961 0.721259
vt 0.115498 0.749532
vt 0.118757 0.703092
vt 1.195886 0.778695
vt 0.923345 0.806233
vt 0.710029 0.756779
vt 0.131795 0.517337
vt -0.140747 0.544875
vt -0.137487 0.498436
vt 0.128536 0.563776
vt -0.144006 0.591314
vt 0.125276 0.610215
vt -0.147266 0.637753
vt 0.122017 0.656654
vt -0.150525 0.684192
vt 0.404337 0.489798
vt 0.135055 0.470898
vt 0.216999 0.535503
vt 0.654062 0.787332
vt 0.384780 0.768432
vt 0.942902 0.527599
vt 0.470033 0.553263
vt 0.673619 0.508699
vt 0.456995 0.739019
vt 1.212184 0.546500
vt 0.723067 0.571023
vt 1.471688 0.704717
vt 0.966322 0.728100
vt 0.969581 0.681661
vt 0.964692 0.751320
vt 0.711658 0.733560
vt 1.478207 0.611839
vt 0.972840 0.635222
vt 1.208924 0.592939
vt 1.468428 0.751156
vt 0.401077 0.536237
vt 0.397818 0.582676
vt 0.394558 0.629115
vt 0.391299 0.675554
vt 0.388039 0.721993
vt 1.442352 1.122668
vt 1.334599 0.835098
vt 1.462937 0.829397
vt 1.480439 0.580037
vt 1.373712 0.277831
vt 1.501793 0.275789
vt 3.079144 0.935481
vt -1.750560 0.347686
vt -0.099080 0.454464
vt -0.134866 0.461089
vt -0.153146 0.721539
vt -1.769478 0.617228
vt -1.768840 0.608136
vt -0.120620 1.012965
vt -0.061950 0.177064
vt -0.114033 0.164271
vt -0.118637 0.733098
vt 1.354155 0.556464
vt -1.749922 0.338594
vt -0.095752 -0.096178
vt 1.393269 -0.000803
vt -0.042393 -0.101570
vt 1.519039 0.030088
vt 0.213740 0.581942
vt 0.974470 0.612003
vt 0.713288 0.710340
vt 0.716548 0.663901
vt 0.721437 0.594243
vt 0.719807 0.617462
vt 0.460255 0.692580
vt 0.463514 0.646141
vt 1.474947 0.658278
vt 0.466774 0.599702
vt 0.207221 0.674820
vt 0.210480 0.628381
vt 1.192627 0.825133
vt 1.465169 0.797595
vt 1.315042 1.113732
vt 3.095619 0.700758
s 0
usemtl Material
f 119/111/57 109/112/57 114/113/57
f 134/114/57 106/115/57 129/116/57
f 110/117/57 98/118/57 99/119/57
f 111/120/57 97/121/57 98/118/57
f 112/122/57 96/123/57 97/121/57
f 113/124/57 95/125/57 96/123/57
f 93/126/57 110/117/57 94/127/57
f 119/111/57 107/129/57 108/130/57
f 91/131/57 120/132/57 92/133/57
f 124/134/57 106/115/57 107/129/57
f 90/135/57 125/136/57 91/131/57
f 102/137/57 133/138/57 132/139/57
f 100/142/57 131/143/57 130/144/57
f 103/145/57 134/114/57 133/138/57
f 146/151/64 148/152/64 147/153/64
f 148/152/57 134/114/57 147/153/57
f 152/154/65 150/155/65 149/156/65
f 146/157/66 103/145/66 102/137/66
f 152/154/57 100/142/57 130/144/57
f 154/158/67 156/159/67 155/160/67
f 150/155/58 91/131/58 92/133/58
f 156/159/57 94/127/57 110/117/57
f 160/161/68 158/162/68 157/163/68
f 97/121/59 96/123/59 157/163/59
f 158/164/63 108/130/63 107/129/63
f 150/155/69 153/165/69 154/166/69
f 114/113/57 159/167/57 160/161/57
f 152/154/65 151/168/65 150/155/65
f 154/158/67 153/169/67 156/159/67
f 156/159/58 153/165/58 94/127/58
f 153/165/58 150/155/58 92/133/58
f 94/127/58 153/165/58 93/126/58
f 150/155/58 151/168/58 90/135/58
f 150/155/58 90/135/58 91/131/58
f 93/126/58 153/165/58 92/133/58
f 160/161/68 159/167/68 158/162/68
f 157/163/59 154/158/59 97/121/59
f 154/158/59 155/160/59 99/119/59
f 154/158/59 99/119/59 98/118/59
f 95/125/59 160/161/59 157/163/59
f 96/123/59 95/125/59 157/163/59
f 154/158/59 98/118/59 97/121/59
f 154/166/69 157/170/69 145/171/69
f 157/170/69 158/172/69 145/171/69
f 145/171/69 146/173/69 150/155/69
f 154/166/69 145/171/69 150/155/69
f 146/173/69 149/156/69 150/155/69
f 133/138/59 134/114/59 164/140/59
f 130/144/59 131/143/59 162/175/59
f 92/133/57 115/128/57 93/126/57
f 101/182/57 132/139/57 131/143/57
f 162/175/70 125/136/70 130/144/70
f 119/111/57 108/130/57 109/112/57
f 134/114/57 105/186/57 106/115/57
f 110/117/57 111/120/57 98/118/57
f 111/120/57 112/122/57 97/121/57
f 93/126/57 115/128/57 110/117/57
f 119/111/57 124/134/57 107/129/57
f 91/131/57 125/136/57 120/132/57
f 124/134/57 129/116/57 106/115/57
f 90/135/57 130/144/57 125/136/57
f 102/137/57 103/145/57 133/138/57
f 100/142/57 101/182/57 131/143/57
f 103/145/57 104/187/57 134/114/57
f 146/151/64 145/188/64 148/152/64
f 105/186/57 134/114/57 148/152/57
f 134/114/57 104/187/57 147/153/57
f 100/142/66 152/154/66 149/189/66
f 149/189/66 146/157/66 102/137/66
f 146/157/66 147/153/66 104/187/66
f 146/157/66 104/187/66 103/145/66
f 101/182/66 100/142/66 149/189/66
f 102/137/66 101/182/66 149/189/66
f 130/144/57 90/135/57 151/168/57
f 151/168/57 152/154/57 130/144/57
f 99/119/57 155/160/57 110/117/57
f 155/160/57 156/159/57 110/117/57
f 158/164/63 159/167/63 109/112/63
f 158/164/63 109/112/63 108/130/63
f 148/152/63 145/188/63 105/186/63
f 145/188/63 158/164/63 107/129/63
f 105/186/63 145/188/63 106/115/63
f 106/115/63 145/188/63 107/129/63
f 92/133/57 120/132/57 115/128/57
f 101/182/57 102/137/57 132/139/57
f 112/122/57 113/124/57 96/123/57
f 113/124/57 114/113/57 95/125/57
f 160/161/57 95/125/57 114/113/57
f 114/113/57 109/112/57 159/167/57
f 162/175/70 161/178/70 125/136/70
usemtl Material.001
f 164/140/60 129/116/60 163/141/60
f 132/139/57 128/176/57 127/177/57
f 161/178/66 126/179/66 125/136/66
f 131/143/57 127/177/57 126/179/57
f 128/176/57 124/134/57 123/180/57
f 122/181/57 128/176/57 123/180/57
f 121/183/57 127/177/57 122/181/57
f 125/136/57 121/183/57 120/132/57
f 162/175/60 126/179/60 161/178/60
f 133/138/70 163/141/70 128/176/70
f 163/141/66 129/116/66 128/176/66
f 120/132/57 116/174/57 115/128/57
f 116/174/57 122/181/57 117/185/57
f 117/185/57 123/180/57 118/184/57
f 123/180/57 119/111/57 118/184/57
f 132/139/57 133/138/57 128/176/57
f 128/176/57 129/116/57 124/134/57
f 122/181/57 127/177/57 128/176/57
f 120/132/57 121/183/57 116/174/57
f 116/174/57 121/183/57 122/181/57
f 117/185/57 122/181/57 123/180/57
f 123/180/57 124/134/57 119/111/57
f 164/140/60 134/114/60 129/116/60
f 131/143/57 132/139/57 127/177/57
f 121/183/57 126/179/57 127/177/57
f 125/136/57 126/179/57 121/183/57
f 162/175/60 131/143/60 126/179/60
f 133/138/70 164/140/70 163/141/70
usemtl Material.002
f 115/128/58 135/117/58 110/117/58
f 112/122/59 138/124/59 113/124/59
f 140/146/61 136/120/61 135/117/61
f 141/147/57 137/122/57 136/120/57
f 142/148/57 138/124/57 137/122/57
f 143/149/62 139/113/62 138/124/62
f 114/113/63 144/150/63 119/111/63
f 113/124/59 139/113/59 114/113/59
f 111/120/59 135/117/59 136/120/59
f 111/120/59 137/122/59 112/122/59
f 115/128/58 140/146/58 135/117/58
f 112/122/59 137/122/59 138/124/59
f 140/146/61 141/147/61 136/120/61
f 113/124/59 138/124/59 139/113/59
f 111/120/59 110/117/59 135/117/59
f 111/120/59 136/120/59 137/122/59
f 140/146/66 116/174/66 141/147/66
f 118/184/66 144/150/66 143/149/66
f 117/185/66 143/149/66 142/148/66
f 116/174/66 142/148/66 141/147/66
f 141/147/57 142/148/57 137/122/57
f 142/148/57 143/149/57 138/124/57
f 114/113/63 139/113/63 144/150/63
f 140/146/66 115/128/66 116/174/66
f 118/184/66 119/111/66 144/150/66
f 117/185/66 118/184/66 143/149/66
f 116/174/66 117/185/66 142/148/66
f 143/149/62 144/150/62 139/113/62
o Cube.004
v 1.000000 -2.452394 1.585439
v 1.000000 -2.288785 1.585439
v 1.000000 -2.452394 0.212212
v 1.000000 -2.288785 0.212212
v -0.860001 -2.452394 1.426130
v -1.000000 -2.452394 1.352308
v -1.000000 -2.288785 1.352308
v -0.860001 -2.288785 1.426130
v -1.000000 -2.452394 0.445343
v -0.860001 -2.452394 0.371521
v -0.860001 -2.288785 0.371521
v -1.000000 -2.288785 0.445343
v 1.000000 -2.343322 0.212212
v 1.000000 -2.397858 0.212212
v 1.000000 -2.452394 1.127697
v 1.000000 -2.452394 0.669954
v 1.000000 -2.288785 0.669954
v 1.000000 -2.288785 1.127697
v 1.000000 -2.343322 1.585439
v 1.000000 -2.397858 1.585439
v 1.000000 -2.397858 0.669954
v 1.000000 -2.397858 1.127697
v 1.000000 -2.343322 0.669954
v 1.000000 -2.343322 1.127697
vn 1.0000 -0.0000 -0.0000
vn -0.4664 -0.0000 0.8846
vn -0.0853 -0.0000 0.9964
vn -0.4664 -0.0000 -0.8846
vn -1.0000 -0.0000 -0.0000
vn -0.0853 -0.0000 -0.9964
vn -0.0000 -1.0000 -0.0000
vn -0.0000 1.0000 -0.0000
vt 0.625000 0.666667
vt 0.541667 0.750000
vt 0.541667 0.666667
vt 0.625000 0.000000
vt 0.375000 0.017500
vt 0.375000 0.000000
vt 0.625000 0.982500
vt 0.375000 0.982500
vt 0.375000 0.267500
vt 0.625000 0.232500
vt 0.625000 0.267500
vt 0.625000 0.017500
vt 0.375000 0.232500
vt 0.541667 0.500000
vt 0.458333 0.500000
vt 0.142500 0.750000
vt 0.125000 0.732500
vt 0.375000 0.666667
vt 0.625000 0.583333
vt 0.875000 0.517500
vt 0.458333 0.666667
vt 0.375000 0.750000
vt 0.458333 0.750000
vt 0.375000 0.583333
vt 0.375000 0.500000
vt 0.458333 0.583333
vt 0.541667 0.583333
vt 0.625000 0.500000
vt 0.625000 0.750000
vt 0.125000 0.517500
vt 0.142500 0.500000
vt 0.857500 0.500000
vt 0.875000 0.732500
vt 0.857500 0.750000
s 0
usemtl Material.002
f 182/190/71 183/191/71 188/192/71
f 172/193/72 170/194/72 169/195/72
f 183/191/73 172/196/73 169/197/73
f 174/198/74 176/199/74 175/200/74
f 171/201/75 173/202/75 170/194/75
f 175/200/76 177/203/76 178/204/76
f 169/205/77 170/206/77 179/207/77
f 182/190/78 181/208/78 176/209/78
f 186/210/71 165/211/71 179/207/71
f 188/192/71 184/212/71 186/210/71
f 178/204/71 180/213/71 167/214/71
f 185/215/71 179/207/71 180/213/71
f 177/203/71 185/215/71 178/204/71
f 187/216/71 186/210/71 185/215/71
f 168/217/71 187/216/71 177/203/71
f 181/208/71 188/192/71 187/216/71
f 182/190/71 166/218/71 183/191/71
f 174/198/74 173/202/74 176/199/74
f 171/201/75 176/199/75 173/202/75
f 167/214/76 174/198/76 178/204/76
f 174/198/76 175/200/76 178/204/76
f 175/200/76 168/217/76 177/203/76
f 170/206/77 173/219/77 179/207/77
f 173/219/77 174/220/77 180/213/77
f 179/207/77 173/219/77 180/213/77
f 174/220/77 167/214/77 180/213/77
f 179/207/77 165/211/77 169/205/77
f 186/210/71 184/212/71 165/211/71
f 188/192/71 183/191/71 184/212/71
f 178/204/71 185/215/71 180/213/71
f 185/215/71 186/210/71 179/207/71
f 177/203/71 187/216/71 185/215/71
f 187/216/71 188/192/71 186/210/71
f 168/217/71 181/208/71 187/216/71
f 181/208/71 182/190/71 188/192/71
f 172/193/72 171/201/72 170/194/72
f 169/197/73 165/211/73 184/212/73
f 183/191/73 166/218/73 172/196/73
f 169/197/73 184/212/73 183/191/73
f 181/208/78 168/217/78 175/221/78
f 175/221/78 176/209/78 181/208/78
f 176/209/78 171/222/78 182/190/78
f 171/222/78 172/223/78 182/190/78
f 172/223/78 166/218/78 182/190/78
o Cube.005
v 1.000000 -2.452394 -0.067959
v 1.000000 -2.288785 -0.067959
v 1.000000 -2.452394 -1.441186
v 1.000000 -2.288785 -1.441186
v -0.860001 -2.452394 -0.227268
v -1.000000 -2.452394 -0.301090
v -1.000000 -2.288785 -0.301090
v -0.860001 -2.288785 -0.227268
v -1.000000 -2.452394 -1.208055
v -0.860001 -2.452394 -1.281877
v -0.860001 -2.288785 -1.281877
v -1.000000 -2.288785 -1.208055
v 1.000000 -2.343322 -1.441186
v 1.000000 -2.397858 -1.441186
v 1.000000 -2.452394 -0.525701
v 1.000000 -2.452394 -0.983444
v 1.000000 -2.288785 -0.983444
v 1.000000 -2.288785 -0.525701
v 1.000000 -2.343322 -0.067959
v 1.000000 -2.397858 -0.067959
v 1.000000 -2.397858 -0.983444
v 1.000000 -2.397858 -0.525701
v 1.000000 -2.343322 -0.983444
v 1.000000 -2.343322 -0.525701
vn 1.0000 -0.0000 -0.0000
vn -0.4664 -0.0000 0.8846
vn -0.0853 -0.0000 0.9964
vn -0.4664 -0.0000 -0.8846
vn -1.0000 -0.0000 -0.0000
vn -0.0853 -0.0000 -0.9964
vn -0.0000 -1.0000 -0.0000
vn -0.0000 1.0000 -0.0000
vt 0.625000 0.666667
vt 0.541667 0.750000
vt 0.541667 0.666667
vt 0.625000 0.000000
vt 0.375000 0.017500
vt 0.375000 0.000000
vt 0.625000 0.982500
vt 0.375000 0.982500
vt 0.375000 0.267500
vt 0.625000 0.232500
vt 0.625000 0.267500
vt 0.625000 0.017500
vt 0.375000 0.232500
vt 0.541667 0.500000
vt 0.458333 0.500000
vt 0.142500 0.750000
vt 0.125000 0.732500
vt 0.375000 0.666667
vt 0.625000 0.583333
vt 0.875000 0.517500
vt 0.458333 0.666667
vt 0.375000 0.750000
vt 0.458333 0.750000
vt 0.375000 0.583333
vt 0.375000 0.500000
vt 0.458333 0.583333
vt 0.541667 0.583333
vt 0.625000 0.500000
vt 0.625000 0.750000
vt 0.125000 0.517500
vt 0.142500 0.500000
vt 0.857500 0.500000
vt 0.875000 0.732500
vt 0.857500 0.750000
s 0
usemtl Material.002
f 206/224/79 207/225/79 212/226/79
f 196/227/80 194/228/80 193/229/80
f 207/225/81 196/230/81 193/231/81
f 198/232/82 200/233/82 199/234/82
f 195/235/83 197/236/83 194/228/83
f 199/234/84 201/237/84 202/238/84
f 193/239/85 194/240/85 203/241/85
f 206/224/86 205/242/86 200/243/86
f 210/244/79 189/245/79 203/241/79
f 212/226/79 208/246/79 210/244/79
f 202/238/79 204/247/79 191/248/79
f 209/249/79 203/241/79 204/247/79
f 201/237/79 209/249/79 202/238/79
f 211/250/79 210/244/79 209/249/79
f 192/251/79 211/250/79 201/237/79
f 205/242/79 212/226/79 211/250/79
f 206/224/79 190/252/79 207/225/79
f 196/227/80 195/235/80 194/228/80
f 198/232/82 197/236/82 200/233/82
f 195/235/83 200/233/83 197/236/83
f 191/248/84 198/232/84 202/238/84
f 198/232/84 199/234/84 202/238/84
f 199/234/84 192/251/84 201/237/84
f 194/240/85 197/253/85 203/241/85
f 197/253/85 198/254/85 204/247/85
f 203/241/85 197/253/85 204/247/85
f 198/254/85 191/248/85 204/247/85
f 203/241/85 189/245/85 193/239/85
f 205/242/86 192/251/86 199/255/86
f 199/255/86 200/243/86 205/242/86
f 200/243/86 195/256/86 206/224/86
f 195/256/86 196/257/86 206/224/86
f 196/257/86 190/252/86 206/224/86
f 210/244/79 208/246/79 189/245/79
f 212/226/79 207/225/79 208/246/79
f 202/238/79 209/249/79 204/247/79
f 209/249/79 210/244/79 203/241/79
f 201/237/79 211/250/79 209/249/79
f 211/250/79 212/226/79 210/244/79
f 192/251/79 205/242/79 211/250/79
f 205/242/79 206/224/79 212/226/79
f 193/231/81 189/245/81 208/246/81
f 207/225/81 190/252/81 196/230/81
f 193/231/81 208/246/81 207/225/81
o penguin
v 0.000000 0.000000 0.000000
o Cylinder
v -0.648338 -0.136903 -0.496393
v -0.590937 -0.207881 -0.486855
v -0.535742 -0.276130 -0.458607
v -0.484874 -0.339029 -0.412736
v -0.440287 -0.394161 -0.351003
v -0.403696 -0.439406 -0.275781
v -0.376507 -0.473027 -0.189961
v -0.359764 -0.493730 -0.096841
v -0.354110 -0.500720 0.000000
v -0.359764 -0.493730 0.096841
v -0.376507 -0.473027 0.189961
v -0.403696 -0.439406 0.275781
v -0.440287 -0.394161 0.351003
v -0.484874 -0.339029 0.412736
v -0.535742 -0.276130 0.458607
v -0.590937 -0.207881 0.486855
v -0.648338 -0.136903 0.496393
v -0.705739 -0.065926 0.486855
v -0.760935 0.002323 0.458607
v -0.811803 0.065223 0.412736
v -0.856389 0.120354 0.351003
v -0.892980 0.165599 0.275781
v -0.920170 0.199220 0.189961
v -0.936913 0.219923 0.096841
v -0.942567 0.226914 0.000000
v -0.936913 0.219923 -0.096841
v -0.920170 0.199220 -0.189961
v -0.892980 0.165599 -0.275781
v -0.856389 0.120354 -0.351003
v -0.811803 0.065223 -0.412736
v -0.760935 0.002323 -0.458607
v -0.705739 -0.065926 -0.486855
v -0.229837 -0.198774 -0.324284
v -0.205858 -0.228424 -0.223371
v -0.191092 -0.246683 -0.113874
v -0.186107 -0.252848 -0.000000
v -0.191092 -0.246683 0.113874
v -0.205858 -0.228424 0.223371
v -0.229837 -0.198774 0.324284
v -0.289071 -0.125531 -0.360326
v -0.030708 0.047086 -0.248197
v -0.019770 0.033560 -0.126530
v -0.016077 0.028994 -0.000000
v -0.019770 0.033561 0.126530
v -0.030708 0.047086 0.248197
v -0.289071 -0.125531 0.360326
v -0.355482 -0.043413 -0.382520
v -0.105453 0.139509 -0.263484
v 0.104275 0.297247 -0.134323
v 0.106235 0.294823 0.000000
v 0.104275 0.297247 0.134323
v -0.105453 0.139509 0.263484
v -0.355482 -0.043413 0.382520
v -0.425572 0.043254 -0.390014
v -0.184971 0.237834 -0.268646
v 0.018951 0.402751 -0.136955
v 0.018951 0.402751 -0.000000
v 0.018951 0.402751 0.136955
v -0.184971 0.237834 0.268646
v -0.425572 0.043254 0.390014
v -0.495661 0.129920 -0.382520
v -0.264489 0.336158 -0.263484
v -0.066372 0.508255 -0.134323
v -0.068333 0.510679 0.000000
v -0.066372 0.508255 0.134323
v -0.264489 0.336158 0.263484
v -0.495661 0.129920 0.382520
v -0.562072 0.212039 -0.360326
v -0.339234 0.428582 -0.248197
v -0.350172 0.442107 -0.126530
v -0.353866 0.446674 -0.000000
v -0.350172 0.442107 0.126530
v -0.339234 0.428582 0.248197
v -0.562072 0.212039 0.360326
v -0.621306 0.285282 -0.324284
v -0.645285 0.314932 -0.223371
v -0.660051 0.333190 -0.113874
v -0.665037 0.339355 -0.000000
v -0.660051 0.333190 0.113874
v -0.645285 0.314932 0.223371
v -0.621306 0.285282 0.324284
v -2.203434 -1.394550 -0.496393
v -2.146033 -1.465528 -0.486855
v -2.090838 -1.533777 -0.458607
v -2.039970 -1.596676 -0.412736
v -1.995384 -1.651808 -0.351003
v -1.958792 -1.697053 -0.275781
v -1.931603 -1.730674 -0.189961
v -1.914860 -1.751377 -0.096841
v -1.909206 -1.758368 0.000000
v -1.914860 -1.751377 0.096841
v -1.931603 -1.730674 0.189961
v -1.958792 -1.697053 0.275781
v -1.995384 -1.651808 0.351003
v -2.039970 -1.596676 0.412736
v -2.090838 -1.533777 0.458607
v -2.146033 -1.465528 0.486855
v -2.203434 -1.394550 0.496393
v -2.260836 -1.323573 0.486855
v -2.316031 -1.255324 0.458607
v -2.366899 -1.192425 0.412736
v -2.411485 -1.137293 0.351003
v -2.448076 -1.092048 0.275781
v -2.475266 -1.058427 0.189961
v -2.492009 -1.037724 0.096841
v -2.497663 -1.030733 0.000000
v -2.492009 -1.037724 -0.096841
v -2.475266 -1.058427 -0.189961
v -2.448076 -1.092048 -0.275781
v -2.411485 -1.137293 -0.351003
v -2.366899 -1.192425 -0.412736
v -2.316031 -1.255324 -0.458607
v -2.260836 -1.323573 -0.486855
v -1.856511 -1.507107 -0.330224
v -1.916325 -1.433146 -0.370678
v -1.981228 -1.352893 -0.395590
v -2.048725 -1.269433 -0.404002
v -2.116221 -1.185972 -0.395590
v -2.181124 -1.105719 -0.370678
v -2.240939 -1.031758 -0.330224
v -1.835148 -1.533523 -0.230290
v -1.901610 -1.451341 -0.260257
v -1.973726 -1.362169 -0.278711
v -2.048725 -1.269433 -0.284942
v -2.123723 -1.176696 -0.278711
v -2.195839 -1.087524 -0.260257
v -2.262301 -1.005342 -0.230290
v -1.821993 -1.549789 -0.118248
v -1.892549 -1.462546 -0.134154
v -1.969107 -1.367881 -0.143950
v -2.048725 -1.269433 -0.147257
v -2.128342 -1.170984 -0.143950
v -2.204900 -1.076319 -0.134154
v -2.275456 -0.989076 -0.118248
v -1.817551 -1.555282 0.000000
v -1.889489 -1.466329 0.000000
v -1.967547 -1.369809 0.000000
v -2.048725 -1.269433 0.000000
v -2.129902 -1.169056 0.000000
v -2.207960 -1.072536 0.000000
v -2.279898 -0.983583 0.000000
v -1.821993 -1.549789 0.118248
v -1.892549 -1.462546 0.134154
v -1.969107 -1.367881 0.143950
v -2.048725 -1.269433 0.147257
v -2.128342 -1.170984 0.143950
v -2.204900 -1.076319 0.134154
v -2.275456 -0.989076 0.118248
v -1.835148 -1.533523 0.230290
v -1.901610 -1.451341 0.260257
v -1.973727 -1.362169 0.278711
v -2.048725 -1.269433 0.284942
v -2.123723 -1.176696 0.278711
v -2.195839 -1.087524 0.260257
v -2.262301 -1.005342 0.230290
v -1.856511 -1.507107 0.330224
v -1.916325 -1.433146 0.370678
v -1.981228 -1.352893 0.395590
v -2.048725 -1.269433 0.404002
v -2.116221 -1.185972 0.395590
v -2.181124 -1.105719 0.370678
v -2.240939 -1.031758 0.330224
vn 0.0653 -0.0808 -0.9946
vn 0.1926 -0.2382 -0.9519
vn 0.3102 -0.3835 -0.8699
vn 0.4129 -0.5106 -0.7542
vn 0.4974 -0.6150 -0.6119
vn 0.5616 -0.6944 -0.4500
vn 0.6046 -0.7476 -0.2749
vn 0.6261 -0.7742 -0.0924
vn 0.6261 -0.7742 0.0924
vn 0.6046 -0.7476 0.2749
vn 0.5616 -0.6944 0.4499
vn 0.4974 -0.6150 0.6119
vn 0.4129 -0.5106 0.7542
vn 0.3102 -0.3835 0.8699
vn 0.1926 -0.2382 0.9519
vn 0.0653 -0.0808 0.9946
vn -0.0653 0.0808 0.9946
vn -0.1926 0.2382 0.9519
vn -0.3102 0.3835 0.8699
vn -0.4129 0.5106 0.7542
vn -0.4974 0.6150 0.6119
vn -0.5616 0.6944 0.4500
vn -0.6046 0.7476 0.2749
vn -0.6261 0.7742 0.0924
vn -0.6261 0.7742 -0.0924
vn -0.6046 0.7476 -0.2749
vn -0.5616 0.6944 -0.4499
vn -0.4974 0.6150 -0.6119
vn -0.4129 0.5106 -0.7542
vn -0.3102 0.3835 -0.8699
vn 0.5802 -0.5418 -0.6081
vn -0.1926 0.2382 -0.9519
vn -0.0653 0.0808 -0.9946
vn -0.5319 0.4035 0.7445
vn 0.3895 -0.1335 -0.9113
vn 0.3527 0.0325 -0.9352
vn 0.3022 0.1632 -0.9392
vn 0.2228 0.2614 -0.9392
vn 0.1056 0.3381 -0.9352
vn -0.0491 0.4088 -0.9113
vn -0.4084 0.6807 -0.6081
vn 0.7068 -0.5533 -0.4407
vn 0.7795 -0.5262 -0.3398
vn 0.3312 0.1129 -0.9368
vn 0.3017 0.1950 -0.9333
vn 0.2538 0.2542 -0.9333
vn 0.1796 0.3002 -0.9368
vn -0.3515 0.8723 -0.3398
vn -0.3932 0.8069 -0.4407
vn 0.7877 -0.5561 -0.2653
vn 0.8322 -0.5177 -0.1986
vn 0.8960 -0.4253 -0.1278
vn 0.3540 0.2639 -0.8972
vn 0.3322 0.2910 -0.8972
vn -0.2285 0.9651 -0.1278
vn -0.3322 0.9221 -0.1986
vn -0.3790 0.8866 -0.2653
vn 0.8245 -0.5589 -0.0885
vn 0.8544 -0.5155 -0.0653
vn 0.9077 -0.4176 -0.0416
vn 0.7775 0.6288 -0.0000
vn -0.2185 0.9749 -0.0416
vn -0.3253 0.9433 -0.0653
vn -0.3740 0.9232 -0.0885
vn 0.8219 -0.5657 0.0666
vn 0.8515 -0.5225 0.0437
vn 0.9044 -0.4261 0.0209
vn -0.2275 0.9736 0.0209
vn -0.3329 0.9420 0.0437
vn -0.3813 0.9220 0.0666
vn 0.7898 -0.5788 0.2030
vn 0.8307 -0.5402 0.1347
vn 0.4109 0.1847 0.8928
vn 0.3716 0.2536 0.8931
vn 0.3258 0.3103 0.8931
vn 0.2665 0.3632 0.8928
vn -0.3545 0.9253 0.1347
vn -0.4008 0.8934 0.2030
vn 0.7256 -0.5942 0.3470
vn 0.4423 -0.0818 0.8931
vn 0.3890 0.0662 0.9189
vn 0.3226 0.1806 0.9291
vn 0.2441 0.2777 0.9291
vn 0.1461 0.3665 0.9189
vn 0.0125 0.4496 0.8931
vn -0.4293 0.8338 0.3470
vn 0.4992 -0.4352 0.7492
vn 0.4785 -0.2309 0.8472
vn 0.4236 -0.0321 0.9053
vn 0.3307 0.1420 0.9330
vn 0.2081 0.2936 0.9330
vn 0.0572 0.4209 0.9053
vn -0.1257 0.5162 0.8472
vn -0.3212 0.5792 0.7492
vn -0.7982 0.5180 0.3075
vn -0.8712 0.4608 0.1692
vn -0.9048 0.4225 0.0536
vn -0.9048 0.4225 -0.0536
vn -0.8712 0.4608 -0.1692
vn -0.7982 0.5180 -0.3075
vn -0.5319 0.4035 -0.7445
vn -0.5243 0.1825 0.8317
vn -0.7775 -0.6288 -0.0000
vn -0.5243 0.1825 -0.8317
vn -0.4743 -0.0193 0.8802
vn -0.4743 -0.0193 -0.8802
vn -0.3853 -0.1903 0.9029
vn -0.3853 -0.1903 -0.9029
vn -0.2749 -0.3139 0.9088
vn -0.2749 -0.3139 -0.9088
vn -0.1467 -0.3995 0.9049
vn -0.1467 -0.3995 -0.9049
vn 0.0185 -0.4682 0.8834
vn 0.0185 -0.4682 -0.8834
vn 0.3650 -0.7087 0.6038
vn 0.2941 -0.8546 0.4280
vn 0.2357 -0.9388 0.2511
vn 0.2109 -0.9740 0.0826
vn 0.2109 -0.9740 -0.0826
vn 0.2357 -0.9388 -0.2511
vn 0.2941 -0.8546 -0.4280
vn 0.3650 -0.7087 -0.6038
vn -0.5616 0.6944 -0.4500
vn 0.4992 -0.4352 -0.7492
vn -0.6167 0.5051 0.6038
vn 0.4785 -0.2309 -0.8472
vn 0.4236 -0.0321 -0.9053
vn 0.3307 0.1420 -0.9330
vn 0.2081 0.2936 -0.9330
vn 0.0572 0.4209 -0.9053
vn -0.1257 0.5162 -0.8472
vn -0.3212 0.5792 -0.7492
vn 0.7256 -0.5942 -0.3470
vn 0.4423 -0.0818 -0.8931
vn 0.3890 0.0662 -0.9189
vn 0.3226 0.1806 -0.9291
vn 0.2441 0.2777 -0.9291
vn 0.1461 0.3665 -0.9189
vn 0.0125 0.4496 -0.8931
vn -0.4293 0.8338 -0.3470
vn 0.4109 0.1847 -0.8928
vn 0.3716 0.2536 -0.8931
vn 0.3258 0.3103 -0.8931
vn 0.2665 0.3632 -0.8928
vn -0.3545 0.9253 -0.1347
vn -0.4008 0.8934 -0.2030
vn -0.2275 0.9736 -0.0209
vn -0.3329 0.9420 -0.0437
vn -0.3813 0.9220 -0.0666
vn -0.2185 0.9749 0.0416
vn -0.3253 0.9433 0.0653
vn -0.3740 0.9232 0.0885
vn -0.3322 0.9221 0.1986
vn -0.3790 0.8866 0.2653
vn -0.7742 0.4663 0.4280
vn -0.8687 0.4269 0.2511
vn -0.9084 0.4100 0.0826
vn -0.9084 0.4100 -0.0826
vn -0.8687 0.4269 -0.2511
vn -0.7742 0.4663 -0.4280
vn -0.6167 0.5051 -0.6038
vn -0.4540 0.1161 0.8834
vn -0.4540 0.1161 -0.8834
vn -0.4214 -0.0599 0.9049
vn -0.4214 -0.0599 -0.9049
vn -0.3644 -0.2031 -0.9088
vn -0.2667 -0.3370 0.9029
vn -0.2667 -0.3370 -0.9029
vn -0.1180 -0.4597 -0.8802
vn 0.0688 -0.5509 -0.8317
vn 0.2834 -0.6045 0.7445
vn 0.3396 -0.8889 0.3075
vn 0.2684 -0.9483 0.1692
vn 0.3396 -0.8889 -0.3075
vn 0.2834 -0.6045 -0.7445
vn 0.5616 -0.6944 -0.4499
vn 0.5616 -0.6944 0.4500
vn -0.5616 0.6944 0.4499
vn 0.7898 -0.5788 -0.2030
vn 0.8307 -0.5402 -0.1347
vn 0.8219 -0.5657 -0.0666
vn 0.8515 -0.5225 -0.0437
vn 0.9044 -0.4261 -0.0209
vn 0.8245 -0.5589 0.0885
vn 0.8544 -0.5155 0.0653
vn 0.9077 -0.4176 0.0416
vn 0.7877 -0.5561 0.2653
vn 0.8322 -0.5177 0.1986
vn 0.8960 -0.4253 0.1278
vn -0.2285 0.9651 0.1278
vn 0.7068 -0.5533 0.4407
vn 0.7795 -0.5262 0.3398
vn -0.3515 0.8723 0.3398
vn -0.3932 0.8069 0.4407
vn 0.5802 -0.5418 0.6081
vn 0.3895 -0.1335 0.9113
vn -0.4084 0.6807 0.6081
vn -0.3644 -0.2031 0.9088
vn -0.1180 -0.4597 0.8802
vn 0.0688 -0.5509 0.8317
vn 0.2239 -0.9731 0.0536
vn 0.2239 -0.9731 -0.0536
vn 0.2684 -0.9483 -0.1692
vn 0.3540 0.2639 0.8972
vn 0.3322 0.2910 0.8972
vn 0.3312 0.1129 0.9368
vn 0.3017 0.1950 0.9333
vn 0.2538 0.2542 0.9333
vn 0.1796 0.3002 0.9368
vn 0.3527 0.0325 0.9352
vn 0.3022 0.1632 0.9392
vn 0.2228 0.2614 0.9392
vn 0.1056 0.3381 0.9352
vn -0.0491 0.4088 0.9113
vt 1.000000 1.000000
vt 0.968750 0.500000
vt 1.000000 0.500000
vt 0.968750 1.000000
vt 0.937500 0.500000
vt 0.937500 1.000000
vt 0.906250 0.500000
vt 0.906250 1.000000
vt 0.875000 0.500000
vt 0.875000 1.000000
vt 0.843750 0.500000
vt 0.843750 1.000000
vt 0.812500 0.500000
vt 0.812500 1.000000
vt 0.781250 0.500000
vt 0.781250 1.000000
vt 0.750000 0.500000
vt 0.750000 1.000000
vt 0.718750 0.500000
vt 0.718750 1.000000
vt 0.687500 0.500000
vt 0.687500 1.000000
vt 0.656250 0.500000
vt 0.656250 1.000000
vt 0.625000 0.500000
vt 0.625000 1.000000
vt 0.593750 0.500000
vt 0.593750 1.000000
vt 0.562500 0.500000
vt 0.562500 1.000000
vt 0.531250 0.500000
vt 0.531250 1.000000
vt 0.500000 0.500000
vt 0.500000 1.000000
vt 0.468750 0.500000
vt 0.468750 1.000000
vt 0.437500 0.500000
vt 0.437500 1.000000
vt 0.406250 0.500000
vt 0.406250 1.000000
vt 0.375000 0.500000
vt 0.375000 1.000000
vt 0.343750 0.500000
vt 0.343750 1.000000
vt 0.312500 0.500000
vt 0.312500 1.000000
vt 0.281250 0.500000
vt 0.281250 1.000000
vt 0.250000 0.500000
vt 0.250000 1.000000
vt 0.218750 0.500000
vt 0.218750 1.000000
vt 0.187500 0.500000
vt 0.187500 1.000000
vt 0.156250 0.500000
vt 0.156250 1.000000
vt 0.125000 0.500000
vt 0.125000 1.000000
vt 0.093750 0.500000
vt 0.093750 1.000000
vt 0.062500 0.500000
vt 0.419706 0.419706
vt 0.391501 0.391501
vt 0.449553 0.383337
vt 0.062500 1.000000
vt 0.031250 0.500000
vt 0.031250 1.000000
vt 0.000000 0.500000
vt 0.919706 0.419706
vt 0.891501 0.391501
vt 0.883337 0.449553
vt 0.383337 0.449553
vt 0.344766 0.404155
vt 0.341844 0.471731
vt 0.297797 0.412794
vt 0.296822 0.485388
vt 0.250000 0.415798
vt 0.203178 0.485388
vt 0.202203 0.412794
vt 0.158156 0.471731
vt 0.155234 0.404155
vt 0.116663 0.449553
vt 0.108499 0.391501
vt 0.080294 0.419706
vt 0.050447 0.383337
vt 0.404155 0.344766
vt 0.471731 0.341844
vt 0.351355 0.351355
vt 0.300649 0.356205
vt 0.250000 0.357933
vt 0.199351 0.356205
vt 0.148645 0.351355
vt 0.095845 0.344766
vt 0.028269 0.341844
vt 0.412794 0.297797
vt 0.485388 0.296822
vt 0.356205 0.300649
vt 0.302834 0.302834
vt 0.250000 0.303623
vt 0.197166 0.302834
vt 0.143795 0.300649
vt 0.087206 0.297797
vt 0.014612 0.296822
vt 0.415798 0.250000
vt 0.490000 0.250000
vt 0.357933 0.250000
vt 0.303623 0.250000
vt 0.250000 0.250000
vt 0.196377 0.250000
vt 0.142067 0.250000
vt 0.084202 0.250000
vt 0.010000 0.250000
vt 0.485388 0.203178
vt 0.412794 0.202203
vt 0.356205 0.199351
vt 0.302834 0.197166
vt 0.250000 0.196377
vt 0.197166 0.197166
vt 0.143795 0.199351
vt 0.087206 0.202203
vt 0.014612 0.203178
vt 0.471731 0.158156
vt 0.404155 0.155234
vt 0.351355 0.148645
vt 0.300649 0.143795
vt 0.250000 0.142067
vt 0.199351 0.143795
vt 0.148645 0.148645
vt 0.095845 0.155234
vt 0.028269 0.158156
vt 0.449553 0.116663
vt 0.391501 0.108499
vt 0.344766 0.095845
vt 0.297797 0.087206
vt 0.250000 0.084202
vt 0.202203 0.087206
vt 0.155234 0.095845
vt 0.108499 0.108499
vt 0.050447 0.116663
vt 0.419706 0.080294
vt 0.383337 0.050447
vt 0.341844 0.028269
vt 0.296822 0.014612
vt 0.250000 0.010000
vt 0.203178 0.014612
vt 0.158156 0.028269
vt 0.116663 0.050447
vt 0.080294 0.080294
vt 0.949553 0.383337
vt 0.904155 0.344766
vt 0.971731 0.341844
vt 0.912794 0.297797
vt 0.985388 0.296822
vt 0.915798 0.250000
vt 0.985388 0.203178
vt 0.912794 0.202203
vt 0.971731 0.158156
vt 0.904155 0.155234
vt 0.949553 0.116663
vt 0.891501 0.108499
vt 0.919706 0.080294
vt 0.883337 0.050447
vt 0.844766 0.404155
vt 0.841844 0.471731
vt 0.851355 0.351355
vt 0.856205 0.300649
vt 0.857933 0.250000
vt 0.856205 0.199351
vt 0.851355 0.148645
vt 0.844767 0.095845
vt 0.841844 0.028269
vt 0.797797 0.412794
vt 0.796822 0.485388
vt 0.800649 0.356205
vt 0.802834 0.302834
vt 0.803623 0.250000
vt 0.802834 0.197166
vt 0.800649 0.143795
vt 0.797797 0.087206
vt 0.796822 0.014612
vt 0.750000 0.415798
vt 0.750000 0.490000
vt 0.750000 0.357933
vt 0.750000 0.303623
vt 0.750000 0.250000
vt 0.750000 0.196377
vt 0.750000 0.142067
vt 0.750000 0.084202
vt 0.750000 0.010000
vt 0.703178 0.485388
vt 0.702203 0.412794
vt 0.699351 0.356205
vt 0.697166 0.302834
vt 0.696377 0.250000
vt 0.697166 0.197166
vt 0.699351 0.143795
vt 0.702203 0.087206
vt 0.703178 0.014612
vt 0.658156 0.471731
vt 0.655234 0.404155
vt 0.648645 0.351355
vt 0.643795 0.300649
vt 0.642067 0.250000
vt 0.643795 0.199351
vt 0.648645 0.148645
vt 0.655234 0.095845
vt 0.658156 0.028269
vt 0.616663 0.449553
vt 0.608499 0.391501
vt 0.595845 0.344766
vt 0.587206 0.297797
vt 0.584202 0.250000
vt 0.587206 0.202203
vt 0.595845 0.155234
vt 0.608499 0.108499
vt 0.616663 0.050447
vt 0.580294 0.419706
vt 0.550447 0.383337
vt 0.528269 0.341844
vt 0.514612 0.296822
vt 0.510000 0.250000
vt 0.514612 0.203178
vt 0.528269 0.158156
vt 0.550447 0.116663
vt 0.580294 0.080294
vt 0.000000 1.000000
vt 0.250000 0.490000
vt 0.990000 0.250000
s 0
usemtl Material.001
f 214/258/87 296/259/87 295/260/87
f 215/261/88 297/262/88 296/259/88
f 216/263/89 298/264/89 297/262/89
f 217/265/90 299/266/90 298/264/90
f 218/267/91 300/268/91 299/266/91
f 219/269/92 301/270/92 300/268/92
f 220/271/93 302/272/93 301/270/93
f 221/273/94 303/274/94 302/272/94
f 222/275/95 304/276/95 303/274/95
f 223/277/96 305/278/96 304/276/96
f 224/279/97 306/280/97 305/278/97
f 225/281/98 307/282/98 306/280/98
f 226/283/99 308/284/99 307/282/99
f 227/285/100 309/286/100 308/284/100
f 228/287/101 310/288/101 309/286/101
f 229/289/102 311/290/102 310/288/102
f 230/291/103 312/292/103 311/290/103
f 231/293/104 313/294/104 312/292/104
f 232/295/105 314/296/105 313/294/105
f 233/297/106 315/298/106 314/296/106
f 234/299/107 316/300/107 315/298/107
f 235/301/108 317/302/108 316/300/108
f 236/303/109 318/304/109 317/302/109
f 237/305/110 319/306/110 318/304/110
f 238/307/111 320/308/111 319/306/111
f 239/309/112 321/310/112 320/308/112
f 240/311/113 322/312/113 321/310/113
f 241/313/114 323/314/114 322/312/114
f 242/315/115 324/316/115 323/314/115
f 243/317/116 325/318/116 324/316/116
f 218/319/117 246/320/117 219/321/117
f 244/322/118 326/323/118 325/318/118
f 245/324/119 295/325/119 326/323/119
f 299/326/120 327/327/120 298/328/120
f 217/329/121 253/330/121 246/320/121
f 216/331/122 260/332/122 253/330/122
f 215/333/123 267/334/123 260/332/123
f 267/334/124 245/335/124 274/336/124
f 274/336/125 244/337/125 281/338/125
f 281/338/126 243/339/126 288/340/126
f 288/340/127 242/341/127 241/342/127
f 219/321/128 247/343/128 220/344/128
f 246/320/129 254/345/129 247/343/129
f 253/330/130 261/346/130 254/345/130
f 260/332/131 268/347/131 261/346/131
f 268/347/132 274/336/132 275/348/132
f 275/348/133 281/338/133 282/349/133
f 282/349/134 288/340/134 289/350/134
f 289/350/135 241/342/135 240/351/135
f 220/344/136 248/352/136 221/353/136
f 247/343/137 255/354/137 248/352/137
f 254/345/138 262/355/138 255/354/138
f 261/346/139 269/356/139 262/355/139
f 269/356/140 275/348/140 276/357/140
f 276/357/141 282/349/141 283/358/141
f 283/358/142 289/350/142 290/359/142
f 290/359/143 240/351/143 239/360/143
f 221/353/144 249/361/144 222/362/144
f 248/352/145 256/363/145 249/361/145
f 255/354/146 263/364/146 256/363/146
f 262/355/147 270/365/147 263/364/147
f 270/365/147 276/357/147 277/366/147
f 277/366/148 283/358/148 284/367/148
f 284/367/149 290/359/149 291/368/149
f 291/368/150 239/360/150 238/369/150
f 223/370/151 249/361/151 250/371/151
f 250/371/152 256/363/152 257/372/152
f 257/372/153 263/364/153 264/373/153
f 264/373/147 270/365/147 271/374/147
f 270/365/147 278/375/147 271/374/147
f 277/366/154 285/376/154 278/375/154
f 284/367/155 292/377/155 285/376/155
f 291/368/156 237/378/156 292/377/156
f 224/379/157 250/371/157 251/380/157
f 251/380/158 257/372/158 258/381/158
f 258/381/159 264/373/159 265/382/159
f 265/382/160 271/374/160 272/383/160
f 271/374/161 279/384/161 272/383/161
f 278/375/162 286/385/162 279/384/162
f 285/376/163 293/386/163 286/385/163
f 292/377/164 236/387/164 293/386/164
f 225/388/165 251/380/165 252/389/165
f 252/389/166 258/381/166 259/390/166
f 259/390/167 265/382/167 266/391/167
f 266/391/168 272/383/168 273/392/168
f 272/383/169 280/393/169 273/392/169
f 279/384/170 287/394/170 280/393/170
f 286/385/171 294/395/171 287/394/171
f 293/386/172 235/396/172 294/395/172
f 226/397/173 252/389/173 227/398/173
f 227/398/174 259/390/174 228/399/174
f 228/399/175 266/391/175 229/400/175
f 229/400/176 273/392/176 230/401/176
f 273/392/177 231/402/177 230/401/177
f 280/393/178 232/403/178 231/402/178
f 287/394/179 233/404/179 232/403/179
f 294/395/180 234/405/180 233/404/180
f 300/406/181 334/407/181 327/327/181
f 301/408/182 341/409/182 334/407/182
f 302/410/183 348/411/183 341/409/183
f 348/411/184 304/412/184 355/413/184
f 355/413/185 305/414/185 362/415/185
f 362/415/186 306/416/186 369/417/186
f 369/417/187 307/418/187 308/419/187
f 298/328/188 328/420/188 297/421/188
f 327/327/189 335/422/189 328/420/189
f 334/407/189 342/423/189 335/422/189
f 341/409/189 349/424/189 342/423/189
f 349/424/189 355/413/189 356/425/189
f 356/425/189 362/415/189 363/426/189
f 363/426/189 369/417/189 370/427/189
f 370/427/190 308/419/190 309/428/190
f 297/421/191 329/429/191 296/430/191
f 328/420/189 336/431/189 329/429/189
f 335/422/189 343/432/189 336/431/189
f 342/423/189 350/433/189 343/432/189
f 350/433/189 356/425/189 357/434/189
f 357/434/189 363/426/189 364/435/189
f 364/435/189 370/427/189 371/436/189
f 371/436/192 309/428/192 310/437/192
f 296/430/193 330/438/193 295/439/193
f 329/429/189 337/440/189 330/438/189
f 336/431/189 344/441/189 337/440/189
f 343/432/189 351/442/189 344/441/189
f 351/442/189 357/434/189 358/443/189
f 358/443/189 364/435/189 365/444/189
f 365/444/189 371/436/189 372/445/189
f 372/445/194 310/437/194 311/446/194
f 326/447/195 330/438/195 331/448/195
f 331/448/189 337/440/189 338/449/189
f 338/449/189 344/441/189 345/450/189
f 345/450/189 351/442/189 352/451/189
f 351/442/189 359/452/189 352/451/189
f 358/443/189 366/453/189 359/452/189
f 365/444/189 373/454/189 366/453/189
f 372/445/196 312/455/196 373/454/196
f 325/456/197 331/448/197 332/457/197
f 332/457/189 338/449/189 339/458/189
f 339/458/189 345/450/189 346/459/189
f 346/459/189 352/451/189 353/460/189
f 352/451/189 360/461/189 353/460/189
f 359/452/189 367/462/189 360/461/189
f 366/453/189 374/463/189 367/462/189
f 373/454/198 313/464/198 374/463/198
f 324/465/199 332/457/199 333/466/199
f 333/466/189 339/458/189 340/467/189
f 340/467/189 346/459/189 347/468/189
f 347/468/189 353/460/189 354/469/189
f 353/460/189 361/470/189 354/469/189
f 360/461/189 368/471/189 361/470/189
f 367/462/189 375/472/189 368/471/189
f 374/463/200 314/473/200 375/472/200
f 323/474/201 333/466/201 322/475/201
f 322/475/202 340/467/202 321/476/202
f 321/476/203 347/468/203 320/477/203
f 320/477/204 354/469/204 319/478/204
f 354/469/205 318/479/205 319/478/205
f 361/470/206 317/480/206 318/479/206
f 368/471/207 316/481/207 317/480/207
f 375/472/208 315/482/208 316/481/208
f 214/258/87 215/261/87 296/259/87
f 215/261/88 216/263/88 297/262/88
f 216/263/89 217/265/89 298/264/89
f 217/265/90 218/267/90 299/266/90
f 218/267/91 219/269/91 300/268/91
f 236/303/109 237/305/109 318/304/109
f 237/305/110 238/307/110 319/306/110
f 238/307/111 239/309/111 320/308/111
f 239/309/112 240/311/112 321/310/112
f 240/311/209 241/313/209 322/312/209
f 241/313/114 242/315/114 323/314/114
f 242/315/115 243/317/115 324/316/115
f 243/317/116 244/322/116 325/318/116
f 218/319/210 217/329/210 246/320/210
f 244/322/118 245/324/118 326/323/118
f 245/324/119 214/483/119 295/325/119
f 299/326/211 300/406/211 327/327/211
f 217/329/212 216/331/212 253/330/212
f 216/331/213 215/333/213 260/332/213
f 215/333/214 214/484/214 267/334/214
f 267/334/215 214/484/215 245/335/215
f 274/336/216 245/335/216 244/337/216
f 281/338/217 244/337/217 243/339/217
f 288/340/218 243/339/218 242/341/218
f 219/321/219 246/320/219 247/343/219
f 246/320/220 253/330/220 254/345/220
f 253/330/221 260/332/221 261/346/221
f 260/332/222 267/334/222 268/347/222
f 268/347/223 267/334/223 274/336/223
f 275/348/224 274/336/224 281/338/224
f 282/349/225 281/338/225 288/340/225
f 289/350/226 288/340/226 241/342/226
f 254/345/227 261/346/227 262/355/227
f 261/346/228 268/347/228 269/356/228
f 269/356/229 268/347/229 275/348/229
f 276/357/230 275/348/230 282/349/230
f 283/358/231 282/349/231 289/350/231
f 290/359/232 289/350/232 240/351/232
f 277/366/233 276/357/233 283/358/233
f 284/367/234 283/358/234 290/359/234
f 291/368/235 290/359/235 239/360/235
f 277/366/236 284/367/236 285/376/236
f 284/367/237 291/368/237 292/377/237
f 291/368/238 238/369/238 237/378/238
f 285/376/239 292/377/239 293/386/239
f 292/377/240 237/378/240 236/387/240
f 300/406/241 301/408/241 334/407/241
f 301/408/242 302/410/242 341/409/242
f 302/410/243 303/485/243 348/411/243
f 348/411/244 303/485/244 304/412/244
f 355/413/245 304/412/245 305/414/245
f 362/415/246 305/414/246 306/416/246
f 369/417/247 306/416/247 307/418/247
f 298/328/248 327/327/248 328/420/248
f 341/409/189 348/411/189 349/424/189
f 349/424/189 348/411/189 355/413/189
f 356/425/189 355/413/189 362/415/189
f 363/426/189 362/415/189 369/417/189
f 370/427/249 369/417/249 308/419/249
f 297/421/250 328/420/250 329/429/250
f 342/423/189 349/424/189 350/433/189
f 350/433/189 349/424/189 356/425/189
f 357/434/189 356/425/189 363/426/189
f 364/435/189 363/426/189 370/427/189
f 371/436/251 370/427/251 309/428/251
f 343/432/189 350/433/189 351/442/189
f 351/442/189 350/433/189 357/434/189
f 358/443/189 357/434/189 364/435/189
f 365/444/189 364/435/189 371/436/189
f 372/445/252 371/436/252 310/437/252
f 326/447/253 295/439/253 330/438/253
f 345/450/189 344/441/189 351/442/189
f 351/442/189 358/443/189 359/452/189
f 358/443/189 365/444/189 366/453/189
f 365/444/189 372/445/189 373/454/189
f 372/445/254 311/446/254 312/455/254
f 352/451/189 359/452/189 360/461/189
f 359/452/189 366/453/189 367/462/189
f 366/453/189 373/454/189 374/463/189
f 373/454/255 312/455/255 313/464/255
f 367/462/189 374/463/189 375/472/189
f 374/463/256 313/464/256 314/473/256
f 323/474/257 324/465/257 333/466/257
f 322/475/258 333/466/258 340/467/258
f 321/476/259 340/467/259 347/468/259
f 368/471/260 375/472/260 316/481/260
f 375/472/261 314/473/261 315/482/261
f 219/269/262 220/271/262 301/270/262
f 220/271/93 221/273/93 302/272/93
f 221/273/94 222/275/94 303/274/94
f 222/275/95 223/277/95 304/276/95
f 223/277/96 224/279/96 305/278/96
f 224/279/263 225/281/263 306/280/263
f 225/281/98 226/283/98 307/282/98
f 226/283/99 227/285/99 308/284/99
f 227/285/100 228/287/100 309/286/100
f 228/287/101 229/289/101 310/288/101
f 229/289/102 230/291/102 311/290/102
f 230/291/103 231/293/103 312/292/103
f 231/293/104 232/295/104 313/294/104
f 232/295/105 233/297/105 314/296/105
f 233/297/106 234/299/106 315/298/106
f 234/299/107 235/301/107 316/300/107
f 235/301/264 236/303/264 317/302/264
f 220/344/265 247/343/265 248/352/265
f 247/343/266 254/345/266 255/354/266
f 221/353/267 248/352/267 249/361/267
f 248/352/268 255/354/268 256/363/268
f 255/354/269 262/355/269 263/364/269
f 262/355/147 269/356/147 270/365/147
f 270/365/147 269/356/147 276/357/147
f 223/370/270 222/362/270 249/361/270
f 250/371/271 249/361/271 256/363/271
f 257/372/272 256/363/272 263/364/272
f 264/373/147 263/364/147 270/365/147
f 270/365/147 277/366/147 278/375/147
f 224/379/273 223/370/273 250/371/273
f 251/380/274 250/371/274 257/372/274
f 258/381/275 257/372/275 264/373/275
f 278/375/276 285/376/276 286/385/276
f 225/388/277 224/379/277 251/380/277
f 252/389/278 251/380/278 258/381/278
f 286/385/279 293/386/279 294/395/279
f 293/386/280 236/387/280 235/396/280
f 226/397/281 225/388/281 252/389/281
f 227/398/282 252/389/282 259/390/282
f 294/395/283 235/396/283 234/405/283
f 327/327/189 334/407/189 335/422/189
f 334/407/189 341/409/189 342/423/189
f 328/420/189 335/422/189 336/431/189
f 335/422/189 342/423/189 343/432/189
f 296/430/284 329/429/284 330/438/284
f 329/429/189 336/431/189 337/440/189
f 336/431/189 343/432/189 344/441/189
f 331/448/189 330/438/189 337/440/189
f 338/449/189 337/440/189 344/441/189
f 325/456/285 326/447/285 331/448/285
f 332/457/189 331/448/189 338/449/189
f 339/458/189 338/449/189 345/450/189
f 346/459/189 345/450/189 352/451/189
f 324/465/286 325/456/286 332/457/286
f 333/466/189 332/457/189 339/458/189
f 340/467/189 339/458/189 346/459/189
f 347/468/189 346/459/189 353/460/189
f 353/460/189 360/461/189 361/470/189
f 360/461/189 367/462/189 368/471/189
f 320/477/287 347/468/287 354/469/287
f 354/469/288 361/470/288 318/479/288
f 361/470/289 368/471/289 317/480/289
f 265/382/290 264/373/290 271/374/290
f 271/374/291 278/375/291 279/384/291
f 259/390/292 258/381/292 265/382/292
f 266/391/293 265/382/293 272/383/293
f 272/383/294 279/384/294 280/393/294
f 279/384/295 286/385/295 287/394/295
f 228/399/296 259/390/296 266/391/296
f 229/400/297 266/391/297 273/392/297
f 273/392/298 280/393/298 231/402/298
f 280/393/299 287/394/299 232/403/299
f 287/394/300 294/395/300 233/404/300
o Plane.001
v 1.128577 2.983933 0.870260
v 1.128578 2.983933 -0.870260
v 1.128578 4.021814 0.870260
v 1.128578 4.021814 -0.870260
vn 1.0000 -0.0000 -0.0000
vt 1.000000 0.000000
vt 0.000000 1.000000
vt 0.000000 0.000000
vt 1.000000 1.000000
s 0
usemtl Material.003
f 377/486/301 378/487/301 376/488/301
f 377/486/301 379/489/301 378/487/301
